<?xml version="1.0" standalone="no"?>
<!DOCTYPE svg PUBLIC "-//W3C//DTD SVG 20010904//EN"
 "http://www.w3.org/TR/2001/REC-SVG-20010904/DTD/svg10.dtd">
<svg version="1.0" xmlns="http://www.w3.org/2000/svg"
 width="1024.000000pt" height="1024.000000pt" viewBox="0 0 1024.000000 1024.000000"
 preserveAspectRatio="xMidYMid meet">

<g transform="translate(0.000000,1024.000000) scale(0.100000,-0.100000)"
fill="#000000" stroke="none">
<path d="M6253 7314 c-30 -15 -185 -183 -210 -227 -17 -30 -16 -98 2 -124 8
-11 47 -45 87 -75 40 -30 155 -114 255 -188 139 -104 177 -137 164 -142 -10
-3 -71 -15 -137 -26 -236 -40 -1254 -219 -1549 -273 -93 -17 -258 -46 -365
-64 -272 -47 -1023 -183 -1052 -190 -19 -5 -48 12 -146 84 -121 90 -140 102
-126 80 5 -8 1 -8 -13 0 -11 6 -24 7 -28 3 -5 -4 -5 -2 -2 4 3 5 -13 22 -36
37 -22 15 -36 27 -31 27 6 0 29 -14 52 -31 56 -41 65 -31 11 12 l-42 33 30 25
c16 14 122 92 234 174 223 161 257 186 248 187 -3 0 -54 -35 -112 -77 -59 -43
-130 -94 -157 -113 -28 -19 -66 -46 -85 -60 -19 -14 -55 -40 -80 -58 -25 -18
-51 -30 -57 -26 -7 4 -8 3 -4 -4 3 -6 -2 -16 -13 -21 -26 -14 -34 -14 -29 1 6
16 -34 48 -58 48 -15 0 -16 2 -3 13 8 6 12 11 10 10 -2 -1 -12 2 -22 8 -15 7
-19 6 -19 -6 0 -8 -7 -15 -15 -15 -8 0 -15 6 -15 13 0 9 -2 9 -9 -1 -7 -11 -9
-11 -14 1 -6 16 9 17 31 4 7 -5 12 -4 12 2 0 6 -5 11 -11 11 -8 0 -8 5 1 15 9
10 9 15 1 15 -6 0 -11 -5 -11 -11 0 -8 -14 -10 -42 -6 -27 4 -37 2 -27 -4 10
-6 11 -9 1 -9 -7 0 -10 -5 -7 -10 5 -8 12 -7 23 2 14 11 14 9 -1 -8 -9 -11
-14 -25 -10 -29 5 -5 0 -3 -9 4 -10 7 -15 17 -12 22 9 16 -26 22 -44 8 -15
-13 -16 -12 -3 4 7 9 10 17 6 17 -4 0 -1 8 6 17 12 14 12 16 0 8 -11 -6 -13
-4 -8 11 7 18 6 18 -7 1 -10 -13 -16 -15 -21 -7 -4 7 -18 9 -34 6 -21 -5 -23
-4 -8 4 18 12 23 30 8 30 -5 0 -16 -7 -25 -15 -13 -14 -15 -13 -13 4 1 12 6
17 16 13 9 -3 12 -1 7 6 -5 8 -2 10 8 6 10 -4 16 -1 16 9 0 12 -25 17 -37 7
-2 -2 -7 -3 -12 -4 -5 0 -13 -4 -17 -8 -4 -5 -12 -8 -18 -8 -6 0 -5 4 2 9 11
7 11 9 -1 14 -9 3 -18 -6 -27 -28 -13 -32 -40 -56 -40 -35 0 6 5 10 10 10 16
0 12 17 -6 24 -22 8 -63 -3 -60 -17 2 -7 1 -9 -1 -5 -3 5 -13 3 -24 -3 -11 -5
-18 -13 -15 -17 2 -4 -4 -8 -14 -8 -11 0 -18 1 -17 2 38 33 215 157 224 157 6
0 11 3 10 7 -1 4 111 92 248 195 138 103 257 194 265 203 17 18 4 9 -184 -130
-186 -137 -359 -264 -505 -371 -147 -108 -175 -140 -175 -208 0 -33 7 -58 20
-77 18 -24 317 -271 354 -292 8 -5 13 -11 10 -13 -3 -3 -106 -24 -230 -46
-290 -53 -309 -58 -348 -87 -41 -32 -72 -92 -72 -142 0 -44 125 -659 324
-1597 123 -578 141 -652 173 -708 26 -44 95 -94 140 -102 28 -4 173 21 548 96
2979 593 4062 812 4091 825 65 31 102 91 286 469 99 204 227 467 285 585 160
326 165 339 165 391 0 25 -8 63 -17 84 -17 34 -147 155 -407 375 l-76 65 48
48 c54 54 74 107 59 161 -14 50 -38 76 -151 158 -57 41 -215 157 -353 258
-137 101 -359 262 -493 359 -134 97 -267 193 -296 215 -63 45 -123 56 -173 30z
m123 -19 c4 -8 11 -12 18 -8 6 3 8 3 4 -2 -4 -4 -28 -8 -54 -8 -55 0 -108 -23
-100 -43 3 -8 1 -14 -5 -14 -6 0 -7 -5 -3 -11 4 -7 0 -9 -14 -5 -11 4 -23 2
-27 -4 -3 -6 -10 -8 -14 -5 -5 2 -6 -6 -4 -18 3 -16 -3 -27 -25 -39 -17 -10
-38 -18 -47 -18 -9 0 -13 -4 -10 -10 3 -5 2 -10 -2 -10 -5 0 -16 -12 -25 -27
-10 -16 -18 -23 -18 -16 0 15 77 115 147 191 l59 62 57 0 c42 0 59 -4 63 -15z
m-3602 -903 c3 -5 -1 -9 -9 -9 -8 0 -15 4 -15 9 0 4 4 8 9 8 6 0 12 -4 15 -8z
m-346 -42 c-7 -10 -14 -17 -17 -15 -4 4 18 35 25 35 2 0 -1 -9 -8 -20z m-34
-55 c-10 -41 5 -93 39 -133 29 -34 29 -35 3 -12 -49 43 -69 105 -50 154 10 25
15 19 8 -9z m874 -199 c10 -12 0 -8 -23 9 -56 40 -66 51 -27 29 18 -10 41 -28
50 -38z m-777 17 c13 -16 12 -17 -3 -4 -10 7 -18 15 -18 17 0 8 8 3 21 -13z
m69 -45 c0 -4 -4 -8 -9 -8 -6 0 -12 4 -15 8 -3 5 1 9 9 9 8 0 15 -4 15 -9z
m39 -37 c13 -11 28 -22 34 -24 7 -2 9 -7 6 -10 -3 -4 -21 7 -40 23 -19 16 -31
29 -28 30 3 0 16 -9 28 -19z m781 -16 c10 -12 10 -15 -3 -15 -8 0 -17 7 -21
15 -3 8 -2 15 3 15 5 0 14 -7 21 -15z m-35 -14 c-11 -10 -185 -45 -191 -38 -3
3 78 23 171 41 11 2 22 4 25 5 2 0 0 -3 -5 -8z m-212 -48 c-7 -2 -19 -2 -25 0
-7 3 -2 5 12 5 14 0 19 -2 13 -5z m-63 -13 c-14 -4 -36 -8 -50 -8 -22 0 -22 1
5 8 17 4 39 8 50 8 16 0 15 -2 -5 -8z m3274 -107 c3 -10 28 -142 56 -293 45
-240 148 -779 165 -865 l7 -30 -142 -28 c-78 -16 -144 -27 -146 -25 -2 2 -31
152 -64 333 -34 182 -66 357 -73 390 l-12 60 -43 -175 c-23 -96 -53 -227 -67
-290 -14 -63 -29 -117 -33 -121 -9 -9 -230 -54 -235 -48 -2 2 -58 85 -124 184
-66 99 -149 221 -183 270 -66 96 -65 97 -36 -35 23 -103 146 -673 149 -689 1
-11 -33 -22 -141 -44 -79 -15 -146 -26 -148 -24 -3 3 -45 218 -95 478 -49 261
-101 530 -114 599 -13 68 -21 127 -17 131 9 8 372 73 376 68 2 -2 91 -136 199
-296 l194 -292 18 82 c35 166 135 582 143 597 6 9 66 25 178 46 93 18 172 33
176 33 4 1 9 -7 12 -16z m899 -196 c98 -58 146 -142 147 -258 0 -61 -5 -85
-26 -127 -52 -105 -155 -159 -284 -150 -153 11 -260 132 -260 292 1 123 80
225 210 267 14 5 57 7 96 5 56 -2 82 -9 117 -29z m-2340 -69 c25 -108 47 -242
40 -248 -4 -4 -81 -20 -170 -35 -115 -20 -163 -33 -163 -42 0 -7 9 -55 20
-106 39 -187 161 -819 158 -821 -7 -6 -311 -66 -315 -63 -2 2 -40 193 -84 423
-44 230 -84 442 -90 470 l-10 51 -122 -23 c-67 -13 -139 -28 -160 -33 -34 -8
-39 -7 -47 12 -16 38 -52 249 -43 257 8 8 918 178 959 179 15 1 24 -6 27 -21z
m-1173 -231 c52 -16 52 -10 17 -177 l-22 -105 -35 3 c-19 1 -91 3 -160 4 -106
1 -134 -2 -183 -20 -251 -92 -323 -369 -152 -584 64 -79 149 -122 256 -127 84
-3 172 16 207 46 l21 18 -24 93 c-13 51 -25 95 -27 97 -2 2 -48 -9 -103 -25
-54 -17 -102 -27 -106 -23 -8 9 -59 197 -59 218 0 8 9 17 20 20 30 10 505 104
508 101 2 -2 132 -655 132 -663 0 -6 -149 -77 -206 -99 -127 -48 -241 -68
-379 -69 -147 0 -207 11 -311 61 -214 101 -354 332 -357 589 -2 180 50 313
168 430 121 121 274 192 480 226 68 11 260 2 315 -14z"/>
<path d="M3259 6993 c-13 -16 -12 -17 4 -4 9 7 17 15 17 17 0 8 -8 3 -21 -13z"/>
<path d="M2614 6465 c10 -8 24 -11 29 -8 6 4 2 10 -9 14 -31 12 -40 9 -20 -6z"/>
</g>
</svg>
